<svg width="801" height="534" viewBox="0 0 801 534" fill="none" xmlns="http://www.w3.org/2000/svg">
<g clip-path="url(#clip0_20_20)">
<path d="M25.984 282.458C21.5515 284.552 16.519 285.002 11.7853 283.728C7.05154 282.454 2.92478 279.539 0.142004 275.503C-0.417996 274.684 0.827006 273.775 1.38801 274.595C3.9723 278.358 7.81668 281.073 12.2273 282.251C16.6378 283.428 21.324 282.99 25.44 281.016C26.335 280.588 26.874 282.033 25.984 282.459V282.458Z" fill="white"/>
<path d="M11.1251 240.084C13.0084 239.631 14.7498 238.718 16.1932 237.427C17.6366 236.135 18.7368 234.506 19.3951 232.684C19.7291 231.748 21.1321 232.39 20.7951 233.319C20.0593 235.329 18.8424 237.129 17.2507 238.56C15.659 239.992 13.7409 241.012 11.6641 241.531C11.4724 241.595 11.2635 241.585 11.0793 241.502C10.8951 241.418 10.7492 241.268 10.6711 241.082C10.6353 240.987 10.6187 240.885 10.6222 240.783C10.6256 240.682 10.6491 240.582 10.6913 240.489C10.7334 240.396 10.7934 240.313 10.8679 240.243C10.9423 240.174 11.0297 240.12 11.1251 240.084Z" fill="white"/>
<path d="M572.886 479.122H212.163C205.61 479.13 199.328 481.736 194.694 486.37C190.06 491.004 187.454 497.286 187.446 503.839C187.443 506.99 188.048 510.112 189.229 513.034C191.064 517.617 194.229 521.545 198.317 524.313C202.404 527.081 207.227 528.561 212.163 528.564H572.886C577.201 528.563 581.441 527.432 585.183 525.284C588.925 523.136 592.04 520.045 594.218 516.32C594.838 515.267 595.377 514.168 595.829 513.033C597.01 510.111 597.615 506.989 597.612 503.838C597.603 497.284 594.994 491.002 590.359 486.368C585.724 481.735 579.441 479.128 572.887 479.121L572.886 479.122Z" fill="#CCCCCC"/>
<path d="M420.267 253.939H367.722V315.702H420.267V253.939Z" fill="#ED9DA0"/>
<path d="M386.118 214.074H391.611C394.282 214.075 396.842 215.136 398.73 217.025C400.618 218.913 401.679 221.475 401.679 224.145H376.047C376.047 221.474 377.108 218.912 378.997 217.024C380.885 215.135 383.447 214.074 386.118 214.074Z" fill="#CCCCCC"/>
<path d="M394.146 271.208C425.481 271.208 450.883 245.806 450.883 214.471C450.883 183.136 425.481 157.734 394.146 157.734C362.811 157.734 337.409 183.136 337.409 214.471C337.409 245.806 362.811 271.208 394.146 271.208Z" fill="#ED9DA0"/>
<path d="M330.854 159.889C331.283 153.373 335.592 146.706 349.281 143.222C349.281 143.222 372.775 113.18 404.7 128.934C404.7 128.934 420.177 126.271 431.654 142.334C431.654 142.334 443.033 135.623 447.833 147.518C447.833 147.518 461.178 171.781 456.265 196.53C451.352 221.279 448.837 224.367 448.837 224.367C448.837 224.367 455.099 173.175 419.029 176.725C382.959 180.275 353.919 167.59 345.75 195.363C338.967 218.424 339.822 230.401 339.822 230.401C339.822 230.401 317.14 207.395 324.852 189.28C328.798 180.01 330.192 169.937 330.854 159.889Z" fill="#090814"/>
<path d="M239.855 524.538H553.684C551.584 500.599 550.216 409.091 550.216 403.069C550.216 376.505 528.48 347.517 528.48 347.517L520.7 343.217L455.727 322.946L438.912 301.103C437.151 298.809 434.882 296.955 432.284 295.687C429.686 294.418 426.829 293.769 423.937 293.791L370.822 294.191C366.147 294.226 361.653 296.007 358.222 299.183L325.331 329.695L277.093 352.73L277.011 352.648L276.511 353.023L269.352 358.179L264.752 361.507C264.752 361.507 252.663 376.001 243.007 419.473C241.554 426.012 240.535 510.653 239.855 524.538Z" fill="#F9BC60"/>
<path d="M626.322 513.034C625.566 513.724 624.802 514.406 624.038 515.088C621.145 517.66 618.212 520.188 615.238 522.672C610.743 526.419 606.155 530.052 601.474 533.572H178.999C170.399 527.113 162.113 520.266 154.142 513.029L626.322 513.034Z" fill="#CCCCCC"/>
<path d="M471.463 517.965H316.157L319.443 502.353H468.173L471.463 517.965Z" fill="#090814"/>
<path d="M611.967 450.589H571.555C570.643 450.586 569.741 450.784 568.913 451.167C568.086 451.55 567.352 452.111 566.764 452.808C566.201 452.699 565.629 452.644 565.055 452.644C562.513 452.644 560.075 453.654 558.277 455.451C556.48 457.249 555.47 459.687 555.47 462.229C555.47 464.771 556.48 467.209 558.277 469.007C560.075 470.804 562.513 471.814 565.055 471.814C566.502 471.814 567.929 471.482 569.228 470.845L569.903 479.127L572.582 511.864C572.709 512.273 572.88 512.667 573.091 513.039C573.632 514.033 574.432 514.863 575.405 515.442C576.378 516.02 577.489 516.326 578.621 516.326H604.902C606.035 516.325 607.147 516.019 608.121 515.44C609.095 514.862 609.896 514.033 610.44 513.039C610.645 512.665 610.812 512.271 610.94 511.864L618.007 458.764C618.298 457.819 618.362 456.819 618.196 455.844C618.03 454.87 617.637 453.948 617.05 453.152C616.462 452.357 615.696 451.711 614.813 451.265C613.931 450.82 612.956 450.588 611.967 450.588V450.589ZM565.056 469.078C563.239 469.078 561.497 468.356 560.212 467.072C558.928 465.787 558.206 464.045 558.206 462.228C558.206 460.411 558.928 458.669 560.212 457.384C561.497 456.1 563.239 455.378 565.056 455.378C565.179 455.378 565.294 455.411 565.418 455.419C565.148 456.522 565.183 457.678 565.518 458.763L568.41 468.163C567.391 468.755 566.235 469.069 565.057 469.075L565.056 469.078Z" fill="#090814"/>
<path d="M520.691 276.85H264.876C262.678 276.852 260.57 277.727 259.016 279.281C257.462 280.835 256.587 282.943 256.585 285.141V457.765C256.587 459.963 257.462 462.071 259.016 463.625C260.57 465.179 262.678 466.054 264.876 466.056H520.691C522.889 466.054 524.997 465.179 526.551 463.625C528.105 462.071 528.98 459.963 528.982 457.765V285.141C528.98 282.943 528.105 280.835 526.551 279.281C524.997 277.727 522.889 276.852 520.691 276.85Z" fill="#817E9A"/>
<path d="M421.593 415.169H361.748C361.329 415.17 360.913 415.253 360.526 415.414C360.139 415.575 359.787 415.811 359.491 416.108C359.195 416.406 358.96 416.758 358.801 417.146C358.641 417.534 358.559 417.95 358.56 418.369V512.907H424.79V418.365C424.791 417.945 424.708 417.528 424.548 417.14C424.387 416.751 424.152 416.398 423.854 416.101C423.557 415.804 423.204 415.568 422.815 415.407C422.427 415.247 422.01 415.164 421.59 415.165L421.593 415.169ZM391.872 468.884C390 468.875 388.208 468.128 386.885 466.805C385.561 465.481 384.814 463.689 384.805 461.817V450.917C384.827 449.057 385.581 447.281 386.904 445.974C388.227 444.667 390.012 443.934 391.872 443.934C393.731 443.934 395.516 444.667 396.839 445.974C398.162 447.281 398.916 449.057 398.938 450.917V461.817C398.929 463.689 398.182 465.481 396.859 466.805C395.535 468.128 393.743 468.875 391.871 468.884H391.872Z" fill="#090814"/>
<path d="M358.354 509.878V518.999C358.355 519.472 358.543 519.924 358.877 520.259C359.212 520.593 359.664 520.781 360.137 520.782H423.215C423.687 520.78 424.139 520.591 424.473 520.257C424.807 519.923 424.996 519.471 424.998 518.999V509.878H358.354Z" fill="#3F3D56"/>
<path d="M515.252 455.962C517.483 455.962 519.291 454.154 519.291 451.923C519.291 449.692 517.483 447.884 515.252 447.884C513.021 447.884 511.213 449.692 511.213 451.923C511.213 454.154 513.021 455.962 515.252 455.962Z" fill="#2F2E41"/>
<path d="M297.17 446.065C296.795 446.065 296.436 446.214 296.171 446.479C295.906 446.744 295.757 447.103 295.757 447.478V454.75C295.757 455.125 295.906 455.484 296.171 455.75C296.436 456.015 296.796 456.164 297.17 456.164C297.545 456.164 297.905 456.015 298.17 455.75C298.435 455.484 298.584 455.125 298.584 454.75V447.478C298.584 447.103 298.435 446.744 298.17 446.479C297.905 446.214 297.546 446.065 297.171 446.065H297.17Z" fill="#2F2E41"/>
<path d="M304.844 446.065C304.469 446.065 304.11 446.214 303.845 446.479C303.58 446.744 303.431 447.103 303.431 447.478V454.75C303.431 455.125 303.58 455.484 303.845 455.75C304.11 456.015 304.47 456.164 304.844 456.164C305.219 456.164 305.579 456.015 305.844 455.75C306.109 455.484 306.258 455.125 306.258 454.75V447.478C306.258 447.103 306.109 446.744 305.844 446.479C305.579 446.214 305.219 446.065 304.844 446.065Z" fill="#2F2E41"/>
<path d="M312.522 446.065C312.147 446.065 311.788 446.214 311.523 446.479C311.258 446.744 311.109 447.103 311.109 447.478V454.75C311.109 455.125 311.258 455.484 311.523 455.75C311.788 456.015 312.148 456.164 312.523 456.164C312.897 456.164 313.257 456.015 313.522 455.75C313.787 455.484 313.936 455.125 313.936 454.75V447.478C313.936 447.292 313.899 447.109 313.828 446.937C313.757 446.766 313.653 446.61 313.522 446.479C313.391 446.347 313.235 446.243 313.063 446.172C312.892 446.101 312.708 446.065 312.522 446.065Z" fill="#2F2E41"/>
<path d="M320.194 446.065C319.819 446.065 319.46 446.214 319.195 446.479C318.93 446.744 318.781 447.103 318.781 447.478V454.75C318.781 455.125 318.93 455.484 319.195 455.75C319.46 456.015 319.82 456.164 320.195 456.164C320.569 456.164 320.929 456.015 321.194 455.75C321.459 455.484 321.608 455.125 321.608 454.75V447.478C321.608 447.103 321.459 446.744 321.194 446.479C320.929 446.214 320.569 446.065 320.194 446.065Z" fill="#2F2E41"/>
<path d="M326.317 513.855C338.116 513.855 347.681 504.29 347.681 492.491C347.681 480.692 338.116 471.127 326.317 471.127C314.518 471.127 304.953 480.692 304.953 492.491C304.953 504.29 314.518 513.855 326.317 513.855Z" fill="#ED9DA0"/>
<path d="M475.571 517.964C487.37 517.964 496.935 508.399 496.935 496.6C496.935 484.801 487.37 475.236 475.571 475.236C463.772 475.236 454.207 484.801 454.207 496.6C454.207 508.399 463.772 517.964 475.571 517.964Z" fill="#ED9DA0"/>
</g>
<defs>
<clipPath id="clip0_20_20">
<rect width="800.117" height="533.577" fill="white"/>
</clipPath>
</defs>
</svg>
