<svg width="662" height="641" viewBox="0 0 662 641" fill="none" xmlns="http://www.w3.org/2000/svg">
<g clip-path="url(#clip0_22_144)">
<path d="M436.888 131.687C422.601 82.0276 370.75 53.3493 321.075 67.6321C271.4 81.9149 242.713 133.75 257 183.409C268.587 223.683 304.882 250.152 344.684 251.102L361.201 258.047L337.793 344.938L458.506 367.674L507.565 241.437C507.565 241.437 436.353 242.771 418.173 218.229C437.812 195.148 445.894 162.99 436.888 131.687Z" fill="#E8E4E6"/>
<path d="M1.88446 566.954L189.763 640.997L372.229 614.058L179.989 557.533L1.88446 566.954Z" fill="#090814"/>
<path d="M178.948 536.428L358.713 446.726L397.036 504.953L203.741 585.822C199.518 599.239 189.003 611.765 173.928 619.328C147.55 632.56 117.286 625.595 106.332 603.772C95.3773 581.948 107.881 553.53 134.259 540.297C149.334 532.734 165.665 531.794 178.948 536.428Z" fill="#E8E4E6"/>
<path d="M484.006 239.554C484.006 239.554 466.465 330.498 405.212 328.614C343.959 326.73 355.267 283.395 355.267 283.395L297.411 315.896C297.411 315.896 272.34 351.224 272.34 395.501L254.435 481.229L228.992 507.607L304.38 566.958L343.017 512.318L381.653 629.134L662.003 641L656.82 400.211C656.82 400.211 641.743 284.337 577.663 260.785C513.583 237.233 484.006 239.554 484.006 239.554Z" fill="#E16162"/>
<path d="M328.069 93.9992C328.069 93.9992 291.33 127.229 253.717 121.982C216.104 116.735 209.106 103.618 209.106 98.3715C209.106 98.3715 209.106 100.12 219.603 103.618L223.976 66.0164C223.976 66.0164 229.225 75.8788 248.469 79.255C248.469 79.255 231.849 72.3131 248.469 58.6712C248.469 58.6712 257.216 66.0164 265.088 66.0164C265.088 66.0164 308.825 6.55295 395.423 44.1548V28.5306L403.295 48.5271L413.453 47.6442L423.414 46.7782C423.414 46.7782 445.282 72.1376 443.533 89.6269C441.783 107.116 474.966 194.961 417.7 221.87C417.7 221.87 431.287 143.844 407.669 162.207C384.051 180.571 369.181 151.714 369.181 151.714L328.069 93.9992Z" fill="#090814"/>
<path opacity="0.5" d="M21.4375 478.533C16.1175 478.533 11.1048 476.519 7.2443 472.809C3.18041 468.905 0.942322 463.651 0.942322 458.017V187.893C0.942322 181.849 3.58809 176.142 8.20229 172.237C12.8147 168.331 18.8755 166.659 24.8444 167.657L235.756 202.864C245.761 204.534 252.971 213.107 252.899 223.247L251.274 449.858C251.195 460.836 242.538 469.776 231.565 470.211L22.2778 478.516C21.9971 478.527 21.7173 478.533 21.4375 478.533Z" fill="#ABD1C6"/>
<path d="M21.4375 479.475C15.8819 479.475 10.6088 477.349 6.59092 473.488C2.34114 469.405 0 463.91 0 458.017V187.894C0 181.572 2.76722 175.603 7.59308 171.518C12.418 167.432 18.7614 165.688 24.9998 166.729L235.911 201.936C246.375 203.683 253.916 212.648 253.84 223.254L252.215 449.865C252.134 461.031 243.568 470.182 232.542 471.094L232.543 471.115L22.3154 479.457C22.0219 479.469 21.7292 479.475 21.4375 479.475ZM21.4495 168.318C16.8537 168.318 12.3775 169.936 8.81151 172.956C4.40897 176.682 1.8847 182.127 1.8847 187.894V458.017C1.8847 463.393 4.0197 468.405 7.89769 472.129C11.7564 475.838 16.8969 477.791 22.2409 477.575L231.527 469.27C241.996 468.854 250.255 460.325 250.331 449.851L251.956 223.241C252.024 213.566 245.146 205.387 235.6 203.794L24.6888 168.587C23.6093 168.407 22.5262 168.318 21.4495 168.318Z" fill="#090814"/>
<path d="M94.5387 338.338H94.4881L31.2144 338.052C24.6547 338.023 19.3181 332.663 19.3181 326.105V246.645C19.3181 243.26 20.7629 240.02 23.2826 237.758C25.7968 235.499 29.176 234.41 32.5423 234.766L95.8124 241.552C101.899 242.204 106.488 247.311 106.488 253.431V326.391C106.488 329.593 105.239 332.6 102.968 334.858C100.714 337.102 97.7201 338.338 94.5387 338.338ZM31.2788 236.583C28.8033 236.583 26.3949 237.495 24.5424 239.159C22.4194 241.065 21.2028 243.794 21.2028 246.645V326.105C21.2028 331.629 25.6983 336.143 31.2236 336.168L94.4927 336.454L94.5387 337.396V336.454C97.2185 336.454 99.7401 335.413 101.639 333.523C103.551 331.62 104.604 329.088 104.604 326.391V253.431C104.604 248.276 100.738 243.975 95.6118 243.425L32.3426 236.639C31.9874 236.602 31.6322 236.583 31.2788 236.583Z" fill="#090814"/>
<path d="M218.924 338.034H123.148C116.558 338.034 111.198 332.675 111.198 326.087V259.485C111.198 256.16 112.6 252.959 115.045 250.704C117.487 248.451 120.794 247.316 124.109 247.576L219.885 255.298C226.048 255.795 230.876 261.026 230.876 267.207V326.087C230.876 332.675 225.514 338.034 218.924 338.034ZM123.159 249.422C120.639 249.422 118.184 250.372 116.323 252.089C114.264 253.988 113.083 256.684 113.083 259.485V326.087C113.083 331.636 117.598 336.15 123.148 336.15H218.924C224.475 336.15 228.991 331.636 228.991 326.087V267.207C228.991 262 224.924 257.595 219.734 257.176L123.958 249.454C123.691 249.433 123.424 249.422 123.159 249.422Z" fill="#090814"/>
<path d="M125.332 261.727V268.335L175.277 270.205V264.623L125.332 261.727Z" fill="#090814"/>
<path d="M125.332 277.616V284.113L211.085 287.162V282.389L125.332 277.616Z" fill="#090814"/>
<path d="M125.332 289.685V295.95L172.45 297.527V292.345L125.332 289.685Z" fill="#090814"/>
<path d="M30.5047 412.795C27.547 412.795 24.7568 411.651 22.6494 409.572C20.5016 407.454 19.3181 404.625 19.3181 401.608V361.412C19.3181 355.243 24.3381 350.225 30.5084 350.225H80.6872C86.8584 350.225 91.8784 355.243 91.8784 361.412V400.93C91.8784 407.015 86.9265 412.034 80.839 412.116L30.5047 412.795ZM30.5084 352.109C25.3771 352.109 21.2028 356.283 21.2028 361.412V401.608C21.2028 404.117 22.1866 406.469 23.9728 408.231C25.7259 409.959 28.0449 410.911 30.5047 410.911L30.6354 410.91L80.8133 410.232C85.8756 410.164 89.9937 405.99 89.9937 400.93V361.412C89.9937 356.283 85.8185 352.109 80.6872 352.109L30.5084 352.109Z" fill="#090814"/>
<path d="M112.539 410.185C109.596 410.185 106.815 409.049 104.711 406.987C102.546 404.866 101.354 402.029 101.354 398.997V361.412C101.354 355.243 106.374 350.225 112.545 350.225H154.192C160.363 350.225 165.383 355.243 165.383 361.412V398.165C165.383 404.212 160.462 409.23 154.414 409.351L112.539 410.185ZM112.545 352.109C107.414 352.109 103.238 356.283 103.238 361.412V398.997C103.238 401.518 104.23 403.878 106.03 405.641C107.781 407.356 110.092 408.301 112.539 408.301L112.731 408.299L154.378 407.467C159.407 407.367 163.498 403.194 163.498 398.165V361.412C163.498 356.283 159.323 352.109 154.192 352.109H112.545Z" fill="#090814"/>
<path d="M183.331 407.314C180.398 407.314 177.626 406.185 175.523 404.133C173.346 402.01 172.147 399.166 172.147 396.127V361.412C172.147 355.243 177.167 350.225 183.339 350.225H219.3C225.416 350.225 230.436 355.199 230.49 361.313L230.79 395.14C230.844 401.213 225.947 406.275 219.874 406.423L183.331 407.314ZM183.339 352.109C178.207 352.109 174.032 356.283 174.032 361.412V396.127C174.032 398.654 175.029 401.019 176.839 402.785C178.588 404.491 180.894 405.43 183.331 405.43L183.57 405.427L219.828 404.54C224.877 404.416 228.95 400.207 228.905 395.157L228.605 361.33C228.56 356.245 224.386 352.109 219.3 352.109L183.339 352.109Z" fill="#090814"/>
<path d="M32.5107 367.71V372.276H72.8578L73.5882 367.71H32.5107Z" fill="#090814"/>
<path d="M75.1232 324.021L53.1646 296.581L29.4079 320.33L28.0754 318.998L53.3211 293.76L76.5956 322.844L75.1232 324.021Z" fill="#090814"/>
<path d="M89.6772 322.174L75.6661 300.752L65.1751 310.008L63.9272 308.595L76.0526 297.899L91.2545 321.142L89.6772 322.174Z" fill="#090814"/>
<path opacity="0.5" d="M504.251 142.198C499.509 142.198 494.892 140.543 491.19 137.444C486.555 133.564 483.897 127.873 483.897 121.83V50.3247C483.897 40.9624 490.242 32.838 499.328 30.5675L615.401 1.55789C621.467 0.0408304 627.794 1.35733 632.752 5.16609C637.712 8.97531 640.612 14.7455 640.71 20.9968L641.954 100.583C642.112 110.621 635.049 119.186 625.164 120.95L507.847 141.878C506.649 142.092 505.445 142.198 504.251 142.198Z" fill="#ABD1C6"/>
<path d="M504.25 143.138C499.269 143.138 494.415 141.372 490.585 138.165C485.735 134.107 482.954 128.152 482.954 121.829V50.3243C482.954 40.5288 489.593 32.0286 499.099 29.6532L615.171 0.643863C621.516 -0.94173 628.136 0.432728 633.325 4.419C638.513 8.40483 641.548 14.4417 641.65 20.9819L642.895 100.568C643.059 111.07 635.672 120.031 625.328 121.876L508.012 142.805C506.77 143.026 505.505 143.138 504.25 143.138ZM620.377 1.884C618.797 1.884 617.203 2.07766 615.627 2.47187L499.556 31.4812C490.89 33.6464 484.839 41.3949 484.839 50.3243V121.829C484.839 127.593 487.374 133.021 491.794 136.721C496.167 140.382 502.062 141.953 507.681 140.95L624.997 120.021C634.426 118.339 641.16 110.17 641.01 100.597L639.766 21.0113C639.673 15.0494 636.907 9.54607 632.176 5.91306C628.734 3.26857 624.602 1.884 620.377 1.884Z" fill="#090814"/>
<path d="M520.176 51.646V59.1269L595.564 43.1674L598.391 34.6887L520.176 51.646Z" fill="#090814"/>
<path d="M520.176 69.5453V77.0261L595.564 61.0666L598.391 52.588L520.176 69.5453Z" fill="#090814"/>
<path d="M520.176 87.4447V94.9256L595.564 78.9661L598.391 70.4874L520.176 87.4447Z" fill="#090814"/>
<path d="M520.176 105.344V112.825L595.564 96.8655L598.391 88.3868L520.176 105.344Z" fill="#090814"/>
<path d="M323.129 558.794L523.999 554.612L533.715 623.632L324.397 614.043C314.838 624.363 299.973 631.187 283.11 631.574C253.605 632.25 229.233 613.01 228.672 588.6C228.112 564.189 251.576 543.852 281.081 543.175C297.944 542.788 313.106 548.923 323.129 558.794Z" fill="#E8E4E6"/>
<path d="M523.005 405.862C523.005 405.862 516.409 447.313 536.198 461.444C536.198 461.444 529.601 512.315 545.621 528.331C545.621 528.331 516.182 529.522 521.95 544.942C521.95 544.942 478.715 537.751 484.369 555.651C484.369 555.651 524.38 603.657 514.74 634.765L645.51 628.19L660.105 552.916" fill="#E16162"/>
</g>
<defs>
<clipPath id="clip0_22_144">
<rect width="662" height="641" fill="white"/>
</clipPath>
</defs>
</svg>
