<svg width="432" height="502" viewBox="0 0 432 502" fill="none" xmlns="http://www.w3.org/2000/svg">
<g clip-path="url(#clip0_37_2)">
<path d="M306.73 429.823L311.02 512.194C311.02 512.194 129.555 339.478 106.948 288.944C84.3402 238.41 126.895 113.403 126.895 113.403L221.314 165.265L306.73 429.823Z" fill="#ED9DA0"/>
<path d="M28.487 78.8281L0.560182 81.4879C0.560182 81.4879 -14.0682 113.405 31.1467 116.063L28.487 78.8281Z" fill="#ED9DA0"/>
<path d="M28.487 128.03L0.560182 130.692C0.560182 130.692 -14.0682 162.609 31.1467 165.267L28.487 128.03Z" fill="#ED9DA0"/>
<path d="M28.487 181.225L0.560182 183.885C0.560182 183.885 -14.0682 215.801 31.1467 218.46L28.487 181.225Z" fill="#ED9DA0"/>
<path d="M36.4662 234.419L8.53931 237.078C8.53931 237.078 -6.08904 268.995 39.1258 271.654L36.4662 234.419Z" fill="#ED9DA0"/>
<path d="M14.8909 91.6477H17.0102V33.5973C17.0102 24.6866 20.5499 16.1408 26.8507 9.83991C33.1515 3.53905 41.6972 -0.000732422 50.6079 -0.000732422H173.593C182.504 -0.000732422 191.049 3.53905 197.35 9.83991C203.651 16.1408 207.191 24.6866 207.191 33.5973V352.065C207.191 356.477 206.322 360.846 204.633 364.923C202.945 368.999 200.47 372.703 197.35 375.823C194.23 378.942 190.527 381.417 186.45 383.106C182.374 384.794 178.005 385.663 173.593 385.663H50.6079C46.1958 385.663 41.8269 384.794 37.7506 383.106C33.6744 381.417 29.9706 378.942 26.8507 375.823C23.7309 372.703 21.2561 368.999 19.5677 364.923C17.8792 360.846 17.0102 356.477 17.0102 352.065V132.969H14.8909V91.6477Z" fill="#3F3D56"/>
<path d="M49.2518 8.74103H65.3054C64.5672 10.5509 64.2854 12.5145 64.4848 14.4589C64.6842 16.4034 65.3587 18.2689 66.4489 19.8913C67.5391 21.5136 69.0115 22.843 70.7365 23.7623C72.4614 24.6816 74.3859 25.1626 76.3405 25.1629H146.799C148.754 25.1627 150.678 24.6817 152.403 23.7625C154.128 22.8432 155.601 21.5138 156.691 19.8914C157.782 18.2689 158.456 16.4033 158.656 14.4587C158.855 12.5142 158.573 10.5504 157.835 8.74039H172.83C179.484 8.74056 185.866 11.384 190.571 16.0893C195.276 20.7945 197.919 27.1762 197.92 33.8304V351.831C197.92 358.485 195.276 364.867 190.571 369.572C185.866 374.278 179.484 376.921 172.83 376.921H49.2518C42.5974 376.921 36.2156 374.278 31.5102 369.573C26.8048 364.867 24.1614 358.485 24.1614 351.831V33.8304C24.1614 27.176 26.8048 20.7941 31.5102 16.0886C36.2156 11.3832 42.5974 8.73975 49.2518 8.73975V8.74103Z" fill="white"/>
<path d="M132.395 97.8284H89.687C86.8581 97.8284 84.5648 100.122 84.5648 102.951V105.484C84.5648 108.313 86.8581 110.606 89.687 110.606H132.395C135.224 110.606 137.517 108.313 137.517 105.484V102.951C137.517 100.122 135.224 97.8284 132.395 97.8284Z" fill="#F9BC60"/>
<path d="M134.916 152.735H87.1657C84.3367 152.735 82.0435 155.028 82.0435 157.857V160.391C82.0435 163.22 84.3367 165.513 87.1657 165.513H134.916C137.745 165.513 140.038 163.22 140.038 160.391V157.857C140.038 155.028 137.745 152.735 134.916 152.735Z" fill="#E5E5E5"/>
<path d="M170.638 180.185H51.4441C48.6152 180.185 46.3219 182.478 46.3219 185.307V187.841C46.3219 190.67 48.6152 192.963 51.4441 192.963H170.638C173.467 192.963 175.76 190.67 175.76 187.841V185.307C175.76 182.478 173.467 180.185 170.638 180.185Z" fill="#E5E5E5"/>
<path d="M170.638 207.633H51.4441C48.6152 207.633 46.3219 209.927 46.3219 212.756V215.289C46.3219 218.118 48.6152 220.411 51.4441 220.411H170.638C173.467 220.411 175.76 218.118 175.76 215.289V212.756C175.76 209.927 173.467 207.633 170.638 207.633Z" fill="#E5E5E5"/>
<path d="M432 472.724L423.777 463.342L283.152 302.907L277.832 193.859L221.98 100.768L206.022 60.8726C206.022 60.8726 168.786 64.8621 199.372 140.664L212.006 181.224C200.618 205.753 194.718 232.47 194.718 259.514V352.459C194.718 374.344 299.01 493.555 311.15 511.764L432 472.724Z" fill="#ED9DA0"/>
<path opacity="0.2" d="M210.4 108.657L221.503 103.2L221.125 102.432L210.866 107.475L195.379 66.8677L194.577 67.1737L210.4 108.657Z" fill="black"/>
<path opacity="0.2" d="M0.708917 81.0828L0.412354 81.8879L16.8613 87.9472L17.1578 87.1421L0.708917 81.0828Z" fill="black"/>
<path opacity="0.2" d="M0.709528 130.848L0.412964 131.653L16.8619 137.712L17.1584 136.907L0.709528 130.848Z" fill="black"/>
<path opacity="0.2" d="M0.709528 184.046L0.412964 184.851L16.8619 190.91L17.1584 190.105L0.709528 184.046Z" fill="black"/>
<path opacity="0.2" d="M9.3273 237.258L8.95605 238.031L16.9646 241.875L17.3358 241.102L9.3273 237.258Z" fill="black"/>
<path d="M110.946 330.937C131.431 330.937 148.038 314.33 148.038 293.845C148.038 273.359 131.431 256.752 110.946 256.752C90.4608 256.752 73.8542 273.359 73.8542 293.845C73.8542 314.33 90.4608 330.937 110.946 330.937Z" fill="#F9BC60"/>
<path d="M106.974 309.544C106.523 309.545 106.077 309.456 105.66 309.284C105.244 309.111 104.865 308.858 104.547 308.539L92.7879 296.14C92.1442 295.496 91.7826 294.623 91.7826 293.713C91.7826 292.802 92.1442 291.929 92.7879 291.286C93.4315 290.642 94.3045 290.281 95.2148 290.281C96.1251 290.281 96.9981 290.642 97.6418 291.286L106.974 301.258L124.223 278.247C124.866 277.603 125.739 277.241 126.65 277.241C127.56 277.241 128.433 277.603 129.077 278.247C129.72 278.89 130.082 279.763 130.082 280.673C130.082 281.584 129.72 282.457 129.077 283.1L109.4 308.539C109.082 308.858 108.704 309.111 108.287 309.284C107.871 309.456 107.425 309.545 106.974 309.544Z" fill="#F2F2F2"/>
</g>
<defs>
<clipPath id="clip0_37_2">
<rect width="432" height="502" fill="white"/>
</clipPath>
</defs>
</svg>
