<svg width="50" height="50" viewBox="0 0 50 50" fill="none" xmlns="http://www.w3.org/2000/svg">
<g clip-path="url(#clip0_32_476)">
<path d="M24.9784 49.8737L10.5487 45.8679L7.33313 9.80139H42.6669L39.4479 45.8623L24.9784 49.8737Z" fill="#264DE4"/>
<path d="M36.6921 43.5661L39.4429 12.7504H25V46.8076L36.6921 43.5661Z" fill="#2965F1"/>
<path d="M14.7048 26.127L15.1013 30.5503H25V26.127H14.7048Z" fill="#EBEBEB"/>
<path d="M13.9082 17.1738L14.3103 21.5973H25V17.1738H13.9082Z" fill="#EBEBEB"/>
<path d="M25 37.615L24.9806 37.6202L20.0542 36.29L19.7393 32.7621H15.2989L15.9186 39.7075L24.9796 42.2229L25 42.2172V37.615Z" fill="#EBEBEB"/>
<path d="M15.6487 0H21.0062V2.24042H17.8891V4.48084H21.0062V6.72126H15.6487V0Z" fill="black"/>
<path d="M22.0777 0H27.4353V1.94819H24.3181V2.33783H27.4353V6.81867H22.0777V4.77307H25.1948V4.38343H22.0777V0Z" fill="black"/>
<path d="M28.5067 0H33.8643V1.94819H30.7472V2.33783H33.8643V6.81867H28.5067V4.77307H31.6238V4.38343H28.5067V0Z" fill="black"/>
<path d="M35.2669 26.1269L36.0654 17.1738H24.9847V21.5973H31.2178L30.8153 26.1269H24.9847V30.5503H30.4317L29.9182 36.2871L24.9847 37.6187V42.2207L34.053 39.7075L34.1195 38.9602L35.1589 27.3147L35.2669 26.1269Z" fill="white"/>
</g>
<defs>
<clipPath id="clip0_32_476">
<rect width="50" height="50" fill="white"/>
</clipPath>
</defs>
</svg>
