<svg width="40" height="40" viewBox="0 0 40 40" fill="none" xmlns="http://www.w3.org/2000/svg">
<path d="M6.66667 29.9999L15 19.9999M33.3333 29.9999L25 19.9999M5 13.3333L17.0417 21.3609C18.1108 22.0738 18.6453 22.4303 19.2232 22.5686C19.7338 22.6911 20.2662 22.6911 20.7768 22.5686C21.3547 22.4303 21.8892 22.0738 22.9583 21.3609L35 13.3333M10.3333 31.6666H29.6667C31.5335 31.6666 32.467 31.6666 33.18 31.3033C33.8072 30.9838 34.3172 30.4738 34.6367 29.8466C35 29.1336 35 28.2001 35 26.3333V13.6666C35 11.7998 35 10.8663 34.6367 10.1533C34.3172 9.52607 33.8072 9.01614 33.18 8.69657C32.467 8.33325 31.5335 8.33325 29.6667 8.33325H10.3333C8.4665 8.33325 7.53307 8.33325 6.82003 8.69657C6.19282 9.01614 5.68288 9.52607 5.36332 10.1533C5 10.8663 5 11.7997 5 13.6666V26.3333C5 28.2001 5 29.1336 5.36332 29.8466C5.68288 30.4738 6.19282 30.9838 6.82003 31.3033C7.53307 31.6666 8.46648 31.6666 10.3333 31.6666Z" stroke="#F9BC60" stroke-width="2" stroke-linecap="round" stroke-linejoin="round"/>
</svg>
