<svg width="50" height="50" viewBox="0 0 50 50" fill="none" xmlns="http://www.w3.org/2000/svg">
<g clip-path="url(#clip0_32_464)">
<path d="M42.6669 9.80139L39.4479 45.8623L24.9784 49.8737L10.5487 45.8679L7.33313 9.80139H42.6669Z" fill="#E44D26"/>
<path d="M25 46.8076L36.6921 43.5661L39.4429 12.7504H25V46.8076Z" fill="#F16529"/>
<path d="M18.7424 21.5973H25V17.1738H13.9082L14.0141 18.3606L15.1012 30.5503H25V26.1269H19.1467L18.7424 21.5973Z" fill="#EBEBEB"/>
<path d="M19.7393 32.7621H15.2989L15.9186 39.7075L24.9796 42.2229L25 42.2172V37.615L24.9806 37.6202L20.0542 36.29L19.7393 32.7621Z" fill="#EBEBEB"/>
<path d="M10.6206 0H12.8685V2.22094H14.9248V0H17.1729V6.72554H14.9249V4.47343H12.8686V6.72554H10.6207L10.6206 0Z" fill="black"/>
<path d="M20.1289 2.23029H18.15V0H24.3569V2.23029H22.377V6.72554H20.129L20.1289 2.23029Z" fill="black"/>
<path d="M25.342 0H27.686L29.1278 2.36315L30.5682 0H32.9131V6.72554H30.6744V3.39199L29.1278 5.7833H29.0892L27.5415 3.39199V6.72554H25.342V0Z" fill="black"/>
<path d="M34.0318 0H36.2804V4.50246H39.4416V6.72554H34.0318V0Z" fill="black"/>
<path d="M24.9847 30.5502H30.4317L29.9182 36.287L24.9847 37.6186V42.2206L34.053 39.7074L34.1195 38.96L35.1589 27.3146L35.2669 26.1268H24.9847V30.5502Z" fill="white"/>
<path d="M24.9847 21.5865V21.5973H35.6694L35.7581 20.603L35.9596 18.3606L36.0654 17.1738H24.9847V21.5865Z" fill="white"/>
</g>
<defs>
<clipPath id="clip0_32_464">
<rect width="50" height="50" fill="white"/>
</clipPath>
</defs>
</svg>
