<svg width="50" height="50" viewBox="0 0 50 50" fill="none" xmlns="http://www.w3.org/2000/svg">
<path d="M13.5416 16.6667C15.2675 16.6667 16.6666 15.2676 16.6666 13.5417C16.6666 11.8158 15.2675 10.4167 13.5416 10.4167C11.8157 10.4167 10.4166 11.8158 10.4166 13.5417C10.4166 15.2676 11.8157 16.6667 13.5416 16.6667Z" fill="#0F3433"/>
<path d="M10.4166 20.8333C10.4166 19.6827 11.3494 18.75 12.5 18.75H14.5833C15.7339 18.75 16.6666 19.6827 16.6666 20.8333V37.5C16.6666 38.6506 15.7339 39.5833 14.5833 39.5833H12.5C11.3494 39.5833 10.4166 38.6506 10.4166 37.5V20.8333Z" fill="#0F3433"/>
<path d="M22.9167 39.5833H25C26.1507 39.5833 27.0834 38.6506 27.0834 37.5V28.125C27.0834 25 33.3334 22.9167 33.3334 27.0833V37.5008C33.3334 38.6515 34.2661 39.5833 35.4167 39.5833H37.5C38.6507 39.5833 39.5834 38.6506 39.5834 37.5V25C39.5834 20.8333 36.4584 18.75 32.2917 18.75C28.125 18.75 27.0834 21.875 27.0834 21.875V20.8333C27.0834 19.6827 26.1507 18.75 25 18.75H22.9167C21.7661 18.75 20.8334 19.6827 20.8334 20.8333V37.5C20.8334 38.6506 21.7661 39.5833 22.9167 39.5833Z" fill="#0F3433"/>
<path fill-rule="evenodd" clip-rule="evenodd" d="M41.6667 2.08334C45.1186 2.08334 47.9167 4.88157 47.9167 8.33334V41.6667C47.9167 45.1185 45.1186 47.9167 41.6667 47.9167H8.33337C4.8816 47.9167 2.08337 45.1185 2.08337 41.6667V8.33334C2.08337 4.88157 4.8816 2.08334 8.33337 2.08334H41.6667ZM41.6667 6.25C42.8173 6.25 43.75 7.18275 43.75 8.33334V41.6667C43.75 42.8173 42.8173 43.75 41.6667 43.75H8.33337C7.18279 43.75 6.25004 42.8173 6.25004 41.6667V8.33334C6.25004 7.18275 7.18279 6.25 8.33337 6.25H41.6667Z" fill="#0F3433"/>
</svg>
