<svg width="50" height="50" viewBox="0 0 50 50" fill="none" xmlns="http://www.w3.org/2000/svg">
<path fill-rule="evenodd" clip-rule="evenodd" d="M46.554 23.7756C46.509 23.7847 46.464 23.8838 46.464 23.9379C46.455 24.2983 46.4459 25.2536 46.4459 25.9025C46.4459 25.9205 46.4729 25.9565 46.5 25.9565C46.6352 25.9655 46.9596 25.9745 47.2389 25.9745C47.6265 25.9745 47.8518 25.9205 47.978 25.8665C48.3024 25.7042 48.4556 25.3527 48.4556 24.9652C48.4556 24.0911 47.8427 23.7576 46.9325 23.7576C46.8695 23.7487 46.6893 23.7487 46.554 23.7756ZM48.8792 27.804C48.8792 26.9118 48.2212 26.4161 47.0317 26.4161C46.9776 26.4161 46.5991 26.4071 46.509 26.4251C46.4819 26.4342 46.4459 26.4522 46.4459 26.4793C46.4459 27.1191 46.4369 28.1374 46.464 28.5339C46.4819 28.7052 46.6082 28.9485 46.7614 29.0206C46.9235 29.1107 47.2931 29.1287 47.5454 29.1287C48.2573 29.1287 48.8792 28.7322 48.8792 27.804ZM44.7157 23.28C44.8057 23.28 45.0761 23.307 45.7701 23.307C46.4279 23.307 46.9506 23.2891 47.5905 23.2891C48.3744 23.2891 49.4559 23.5684 49.4559 24.7399C49.4559 25.3167 49.0503 25.7763 48.5186 26.0016C48.4916 26.0106 48.4916 26.0286 48.5186 26.0376C49.2756 26.2269 49.9426 26.6955 49.9426 27.5787C49.9426 28.4439 49.4018 28.9935 48.6178 29.336C48.1401 29.5433 47.5454 29.6154 46.9416 29.6154C46.4819 29.6154 45.2474 29.5613 44.5625 29.5794C44.4904 29.5523 44.6255 29.2278 44.6886 29.1738C44.8508 29.1648 44.977 29.1557 45.1482 29.1017C45.3916 29.0386 45.4185 28.9665 45.4546 28.5971C45.4727 28.2816 45.4727 27.1641 45.4727 26.3711C45.4727 25.2806 45.4817 24.5417 45.4727 24.1812C45.4637 23.9019 45.3645 23.8117 45.1663 23.7576C45.0131 23.7306 44.7607 23.6945 44.5534 23.6676C44.5083 23.6224 44.6615 23.316 44.7157 23.28ZM39.5158 28.8854C39.7321 29.0566 40.1556 29.1287 40.5341 29.1287C41.0208 29.1287 41.5074 29.0386 41.976 28.615C42.4537 28.1825 42.7871 27.5156 42.7871 26.4522C42.7871 25.4338 42.3996 24.6047 41.6066 24.1181C41.156 23.8387 40.5792 23.7216 39.9123 23.7216C39.7141 23.7216 39.5248 23.7306 39.4077 23.7847C39.3806 23.8027 39.3175 23.8838 39.3175 23.9288C39.2995 24.1091 39.2995 25.4969 39.2995 26.308C39.2995 27.1461 39.2995 28.3176 39.3175 28.4528C39.3175 28.588 39.3806 28.7953 39.5158 28.8854ZM37.4701 23.28C37.6413 23.28 38.2991 23.307 38.6146 23.307C39.1824 23.307 39.5878 23.28 40.6603 23.28C41.5615 23.28 42.3185 23.5234 42.8592 23.9829C43.517 24.5507 43.8595 25.3348 43.8595 26.29C43.8595 27.6508 43.2377 28.4348 42.6158 28.8854C41.9941 29.345 41.183 29.6154 40.0295 29.6154C39.4167 29.6154 38.3623 29.5973 37.4881 29.5883H37.4791C37.4341 29.5073 37.5512 29.1918 37.6233 29.1828C37.8576 29.1557 37.9206 29.1467 38.0378 29.1017C38.2271 29.0296 38.2631 28.9305 38.2902 28.5971C38.3172 27.9752 38.3082 27.2272 38.3082 26.3801C38.3082 25.7763 38.3172 24.5957 38.2991 24.2172C38.2722 23.9019 38.137 23.8208 37.8666 23.7666C37.7314 23.7396 37.5512 23.7036 37.2989 23.6766C37.2628 23.6134 37.425 23.3341 37.4701 23.28Z" fill="white"/>
<path fill-rule="evenodd" clip-rule="evenodd" d="M26.5657 29.2368C26.3405 29.2098 26.1782 29.1738 25.9799 29.0836C25.9529 29.0656 25.9078 28.9755 25.9078 28.9394C25.8898 28.624 25.8898 27.7228 25.8898 27.119C25.8898 26.6324 25.8088 26.2088 25.6014 25.9115C25.3581 25.569 25.0066 25.3707 24.5561 25.3707C24.1595 25.3707 23.6278 25.6411 23.1862 26.0196C23.1772 26.0286 23.1051 26.0917 23.1141 25.9926C23.1141 25.8934 23.1322 25.6952 23.1412 25.56C23.1502 25.4338 23.0781 25.3707 23.0781 25.3707C22.7897 25.5149 21.9787 25.7042 21.6813 25.7312C21.465 25.7763 21.4109 25.9835 21.6362 26.0556H21.6453C21.8885 26.1277 22.0507 26.2088 22.1769 26.29C22.267 26.362 22.258 26.4612 22.258 26.5423C22.267 27.2182 22.267 28.2545 22.24 28.8223C22.231 29.0476 22.1679 29.1287 22.0057 29.1647L22.0237 29.1557C21.8975 29.1828 21.7984 29.2098 21.6452 29.2278C21.5911 29.2819 21.5911 29.5703 21.6452 29.6334C21.7443 29.6334 22.267 29.6063 22.6996 29.6063C23.2944 29.6063 23.6008 29.6334 23.754 29.6334C23.8171 29.5613 23.8351 29.2909 23.7991 29.2278C23.6278 29.2188 23.5017 29.2008 23.3846 29.1647C23.2223 29.1287 23.1772 29.0476 23.1682 28.8583C23.1502 28.3807 23.1502 27.3714 23.1502 26.6865C23.1502 26.4972 23.2043 26.4071 23.2583 26.353C23.4656 26.1728 23.7991 26.0466 24.0964 26.0466C24.3848 26.0466 24.5741 26.1367 24.7183 26.2539C24.9165 26.4161 24.9796 26.6504 25.0066 26.8217C25.0517 27.2092 25.0337 27.9752 25.0337 28.6421C25.0337 29.0025 25.0066 29.0927 24.8715 29.1377C24.8084 29.1647 24.6462 29.2008 24.4569 29.2188C24.3938 29.2819 24.4119 29.5613 24.4569 29.6244C24.7183 29.6244 25.0247 29.5973 25.4753 29.5973C26.034 29.5973 26.3945 29.6244 26.5387 29.6244C26.5837 29.5703 26.6018 29.3089 26.5657 29.2368ZM29.062 25.7943C28.5844 25.7943 28.287 26.1638 28.287 26.7405C28.287 27.3263 28.5483 28.0022 29.2873 28.0022C29.4135 28.0022 29.6478 27.9481 29.7559 27.822C29.9271 27.6598 30.0443 27.3353 30.0443 26.9929C30.0443 26.2449 29.6748 25.7943 29.062 25.7943ZM28.9989 29.7776C28.8187 29.7776 28.6925 29.8316 28.6114 29.8767C28.2329 30.12 28.0617 30.3543 28.0617 30.6337C28.0617 30.895 28.1608 31.1023 28.3771 31.2825C28.6384 31.5078 28.9989 31.616 29.4585 31.616C30.3777 31.616 30.7833 31.1203 30.7833 30.6337C30.7833 30.2912 30.612 30.0659 30.2606 29.9398C30.0082 29.8316 29.5486 29.7776 28.9989 29.7776ZM29.062 32.1206C28.5123 32.1206 28.1158 32.0034 27.7733 31.7421C27.4399 31.4898 27.2957 31.1113 27.2957 30.85C27.2957 30.7779 27.3137 30.5796 27.476 30.3994C27.575 30.2912 27.7913 30.084 28.305 29.7325C28.323 29.7235 28.332 29.7145 28.332 29.6964C28.332 29.6784 28.314 29.6604 28.296 29.6514C27.8724 29.4892 27.7463 29.2278 27.7102 29.0836V29.0656C27.7012 29.0115 27.6832 28.9575 27.7643 28.9034C27.8274 28.8583 27.9175 28.8043 28.0166 28.7412C28.1698 28.6511 28.332 28.5519 28.4312 28.4708C28.4492 28.4528 28.4492 28.4348 28.4492 28.4168C28.4492 28.3987 28.4312 28.3807 28.4131 28.3717C27.7824 28.1644 27.4669 27.6958 27.4669 26.9929C27.4669 26.5333 27.6742 26.1187 28.0437 25.8574C28.296 25.6591 28.9268 25.4158 29.3414 25.4158H29.3684C29.792 25.4248 30.0263 25.5149 30.3597 25.6321C30.5399 25.6952 30.7112 25.7222 30.9455 25.7222C31.2969 25.7222 31.4501 25.6141 31.5763 25.4879C31.5853 25.5059 31.6034 25.551 31.6124 25.6681C31.6214 25.7853 31.5853 25.9565 31.4952 26.0827C31.4231 26.1818 31.2609 26.2539 31.0987 26.2539H31.0536C30.8914 26.2359 30.8193 26.2179 30.8193 26.2179L30.7833 26.2359C30.7743 26.2539 30.7833 26.2719 30.7923 26.299L30.8013 26.317C30.8193 26.3981 30.8554 26.6414 30.8554 26.7045C30.8554 27.4435 30.558 27.7679 30.2426 28.0112C29.9362 28.2365 29.5847 28.3807 29.1882 28.4168C29.1792 28.4168 29.1432 28.4168 29.062 28.4258C29.0169 28.4258 28.9539 28.4348 28.9448 28.4348H28.9358C28.8637 28.4528 28.6835 28.5429 28.6835 28.6961C28.6835 28.8313 28.7647 28.9935 29.1521 29.0206C29.2332 29.0296 29.3143 29.0296 29.4044 29.0386C29.9181 29.0746 30.558 29.1197 30.8554 29.2188C31.2699 29.372 31.5313 29.7415 31.5313 30.1831C31.5313 30.85 31.0536 31.4718 30.2606 31.8593C29.8731 32.0305 29.4856 32.1206 29.062 32.1206ZM34.1988 25.8394C34.0095 25.8394 33.8383 25.8844 33.7121 25.9745C33.3607 26.1908 33.1804 26.6234 33.1804 27.2542C33.1804 28.4348 33.7752 29.2639 34.6223 29.2639C34.8747 29.2639 35.0729 29.1918 35.2442 29.0476C35.5055 28.8313 35.6407 28.3987 35.6407 27.7949C35.6407 26.6234 35.0549 25.8394 34.1988 25.8394ZM34.361 29.6964C32.829 29.6964 32.2792 28.57 32.2792 27.5156C32.2792 26.7766 32.5766 26.2088 33.1714 25.8033C33.595 25.542 34.0996 25.3978 34.5502 25.3978C35.7217 25.3978 36.5419 26.2359 36.5419 27.4435C36.5419 28.2636 36.2174 28.9124 35.5956 29.3089C35.2982 29.5072 34.7846 29.6964 34.361 29.6964ZM18.3018 25.8394C18.1125 25.8394 17.9414 25.8844 17.8152 25.9745C17.4637 26.1908 17.2835 26.6234 17.2835 27.2542C17.2835 28.4348 17.8782 29.2639 18.7254 29.2639C18.9777 29.2639 19.176 29.1918 19.3472 29.0476C19.6085 28.8313 19.7437 28.3987 19.7437 27.7949C19.7437 26.6234 19.1669 25.8394 18.3018 25.8394ZM18.4641 29.6964C16.932 29.6964 16.3823 28.57 16.3823 27.5156C16.3823 26.7766 16.6797 26.2088 17.2744 25.8033C17.698 25.542 18.2027 25.3978 18.6533 25.3978C19.8249 25.3978 20.6449 26.2359 20.6449 27.4435C20.6449 28.2636 20.3205 28.9124 19.6986 29.3089C19.4103 29.5072 18.8966 29.6964 18.4641 29.6964ZM8.16347 29.6063C8.14543 29.5793 8.12739 29.4982 8.13641 29.3991C8.13641 29.327 8.15445 29.2819 8.16347 29.2639C8.35268 29.2368 8.45184 29.2098 8.55993 29.1828C8.7402 29.1377 8.81229 29.0386 8.82132 28.8133C8.84838 28.2726 8.84838 27.2452 8.83936 26.5333V26.5152C8.83936 26.4341 8.83936 26.335 8.7402 26.2629C8.59602 26.1728 8.42477 26.0917 8.19948 26.0286C8.11836 26.0016 8.06432 25.9565 8.07334 25.9024C8.07334 25.8484 8.12739 25.7853 8.24459 25.7673C8.54197 25.7402 9.31693 25.551 9.62334 25.4158C9.64138 25.4338 9.66845 25.4879 9.66845 25.56L9.65943 25.6591C9.6504 25.7582 9.64138 25.8754 9.64138 25.9926C9.64138 26.0286 9.67747 26.0556 9.71347 26.0556C9.73152 26.0556 9.74956 26.0466 9.76761 26.0376C10.3443 25.587 10.867 25.4248 11.1373 25.4248C11.579 25.4248 11.9214 25.6321 12.1828 26.0647C12.2007 26.0917 12.2188 26.1007 12.2459 26.1007C12.2639 26.1007 12.2909 26.0917 12.2999 26.0737C12.8316 25.6681 13.3633 25.4248 13.7147 25.4248C14.5529 25.4248 15.0485 26.0466 15.0485 27.101C15.0485 27.3984 15.0485 27.7859 15.0395 28.1374C15.0395 28.4528 15.0305 28.7412 15.0305 28.9485C15.0305 28.9935 15.0936 29.1377 15.1927 29.1647C15.3189 29.2278 15.4901 29.2549 15.7154 29.2909H15.7244C15.7425 29.3539 15.7064 29.5883 15.6704 29.6334C15.6163 29.6334 15.5351 29.6334 15.4451 29.6244C15.2738 29.6153 15.0305 29.6063 14.7602 29.6063C14.2014 29.6063 13.9131 29.6153 13.6336 29.6334C13.6157 29.5613 13.6066 29.345 13.6336 29.2909C13.7959 29.2639 13.877 29.2368 13.9761 29.2098C14.1564 29.1557 14.2014 29.0746 14.2104 28.8403C14.2104 28.6691 14.2464 27.2092 14.1924 26.8577C14.1383 26.4972 13.8679 26.0737 13.2732 26.0737C13.0479 26.0737 12.6964 26.1638 12.3539 26.4251C12.336 26.4432 12.3179 26.4882 12.3179 26.5152V26.5243C12.3539 26.7135 12.3539 26.9298 12.3539 27.2632V27.849C12.3539 28.2545 12.3449 28.633 12.3539 28.9214C12.3539 29.1197 12.4711 29.1647 12.5703 29.2008C12.6244 29.2098 12.6604 29.2188 12.7055 29.2278C12.7866 29.2459 12.8677 29.2639 12.9938 29.2909C13.0119 29.327 13.0119 29.4441 12.9848 29.5432C12.9758 29.5973 12.9577 29.6244 12.9488 29.6334C12.6424 29.6244 12.327 29.6153 11.8674 29.6153C11.7322 29.6153 11.4979 29.6244 11.2996 29.6244C11.1373 29.6244 10.9841 29.6334 10.8941 29.6334C10.8851 29.6153 10.867 29.5523 10.867 29.4531C10.867 29.372 10.8851 29.3089 10.9031 29.2909C10.9481 29.2819 10.9841 29.2729 11.0292 29.2729C11.1373 29.2549 11.2275 29.2368 11.3176 29.2188C11.4708 29.1738 11.5249 29.0927 11.5339 28.8944C11.5609 28.4438 11.5879 27.1551 11.5249 26.8307C11.4168 26.308 11.1194 26.0466 10.6417 26.0466C10.3624 26.0466 10.0109 26.1818 9.7225 26.3981C9.67747 26.4341 9.64138 26.5243 9.64138 26.6054V27.1371C9.64138 27.7859 9.64138 28.597 9.6504 28.9485C9.65943 29.0566 9.69543 29.1828 9.90277 29.2278C9.94779 29.2368 10.0199 29.2549 10.11 29.2639L10.2722 29.2909C10.2903 29.345 10.2813 29.5613 10.2452 29.6334C10.155 29.6334 10.0469 29.6244 9.92072 29.6244C9.73152 29.6153 9.48818 29.6063 9.21786 29.6063C8.90243 29.6063 8.67713 29.6153 8.49686 29.6244C8.37072 29.6063 8.27157 29.6063 8.16347 29.6063Z" fill="white"/>
<path fill-rule="evenodd" clip-rule="evenodd" d="M3.42318 31.7692L3.05371 31.643C3.05371 31.643 3.09882 29.7595 2.42293 29.6244C1.97234 29.1017 2.49502 7.45514 4.11711 29.5523C4.11711 29.5523 3.55843 29.8316 3.45927 30.3093C3.35109 30.7779 3.42318 31.7692 3.42318 31.7692Z" fill="white"/>
<path fill-rule="evenodd" clip-rule="evenodd" d="M3.42318 31.7692L3.05371 31.643C3.05371 31.643 3.09882 29.7595 2.42293 29.6244C1.97234 29.1017 2.49502 7.45514 4.11711 29.5523C4.11711 29.5523 3.55843 29.8316 3.45927 30.3093C3.35109 30.7779 3.42318 31.7692 3.42318 31.7692Z" fill="white"/>
<path fill-rule="evenodd" clip-rule="evenodd" d="M3.6215 29.9488C3.6215 29.9488 6.85675 27.822 6.09975 23.3972C5.36982 20.18 3.64848 19.1256 3.45928 18.72C3.25202 18.4316 3.05371 17.927 3.05371 17.927L3.18896 26.8757C3.18896 26.8848 2.90953 29.6154 3.6215 29.9488Z" fill="white"/>
<path fill-rule="evenodd" clip-rule="evenodd" d="M3.6215 29.9488C3.6215 29.9488 6.85675 27.822 6.09975 23.3972C5.36982 20.18 3.64848 19.1256 3.45928 18.72C3.25202 18.4316 3.05371 17.927 3.05371 17.927L3.18896 26.8757C3.18896 26.8848 2.90953 29.6154 3.6215 29.9488Z" fill="#499D4A"/>
<path fill-rule="evenodd" clip-rule="evenodd" d="M2.8645 30.0659C2.8645 30.0659 -0.17252 27.9931 0.0077496 24.3434C0.178913 20.6936 2.32377 18.9002 2.73827 18.5758C3.00868 18.2874 3.0177 18.1792 3.03574 17.8909C3.22495 18.2964 3.18895 23.9559 3.21593 24.6227C3.29704 27.1911 3.07175 29.5793 2.8645 30.0659Z" fill="white"/>
<path fill-rule="evenodd" clip-rule="evenodd" d="M2.8645 30.0659C2.8645 30.0659 -0.17252 27.9931 0.0077496 24.3434C0.178913 20.6936 2.32377 18.9002 2.73827 18.5758C3.00868 18.2874 3.0177 18.1792 3.03574 17.8909C3.22495 18.2964 3.18895 23.9559 3.21593 24.6227C3.29704 27.1911 3.07175 29.5793 2.8645 30.0659Z" fill="#58AA50"/>
</svg>
