<svg width="50" height="50" viewBox="0 0 50 50" fill="none" xmlns="http://www.w3.org/2000/svg">
<path d="M1.82364 6.55812H48.1764C48.8496 6.55812 49.3953 7.1038 49.3953 7.77703V42.223C49.3953 42.8962 48.8496 43.4419 48.1764 43.4419H1.82364C1.15041 43.4419 0.604736 42.8962 0.604736 42.223V7.77703C0.604736 7.1038 1.15041 6.55812 1.82364 6.55812ZM10.4487 23.5762C10.4487 25.1801 8.01031 25.1801 8.01031 23.5762C8.01031 21.6575 8.90323 19.8527 10.4127 18.6793C10.3176 18.5452 10.229 18.4064 10.1481 18.2635C9.76721 17.5873 9.55048 16.809 9.55048 15.9822C9.55048 13.4092 11.6363 11.3233 14.2094 11.3233C16.7818 11.3233 18.8683 13.4092 18.8683 15.9822C18.8683 16.9501 18.5677 17.8921 18.0055 18.6793C19.5155 19.8527 20.4084 21.6575 20.4084 23.5762C20.4084 25.1801 17.97 25.1801 17.97 23.5762C17.97 22.1919 17.2265 20.9364 16.0129 20.2738C15.4466 20.5135 14.8241 20.6411 14.2094 20.6411C13.5946 20.6411 12.9716 20.5135 12.4052 20.2738C11.1922 20.9364 10.4487 22.1919 10.4487 23.5762ZM7.19239 29.0087H21.2258C21.899 29.0087 22.4453 29.555 22.4453 30.2282V37.4572C22.4453 38.1304 21.899 38.6767 21.2258 38.6767H7.19239C6.51915 38.6767 5.97348 38.1304 5.97348 37.4572V30.2282C5.97348 29.555 6.51915 29.0087 7.19239 29.0087ZM20.0069 31.4471H8.41188V36.2383H20.0069V31.4471ZM14.2094 13.7617C12.9828 13.7617 11.9889 14.7556 11.9889 15.9822C11.9889 17.2277 12.9869 18.2027 14.2094 18.2027C15.433 18.2027 16.4299 17.2171 16.4299 15.9822C16.4299 14.7556 15.4354 13.7617 14.2094 13.7617ZM25.0532 15.4814C23.4498 15.4814 23.4498 13.043 25.0532 13.043H42.8076C44.411 13.043 44.411 15.4814 42.8076 15.4814H25.0532ZM27.8175 36.957C26.2136 36.957 26.2136 34.518 27.8175 34.518H42.8076C44.411 34.518 44.411 36.957 42.8076 36.957H27.8175ZM25.0532 20.8502C23.4498 20.8502 23.4498 18.4118 25.0532 18.4118H42.8076C44.411 18.4118 44.411 20.8502 42.8076 20.8502H25.0532ZM27.8175 26.2189C26.2136 26.2189 26.2136 23.7805 27.8175 23.7805H42.8076C44.411 23.7805 44.411 26.2189 42.8076 26.2189H27.8175ZM27.8175 31.5882C26.2136 31.5882 26.2136 29.1492 27.8175 29.1492H42.8076C44.411 29.1492 44.411 31.5882 42.8076 31.5882H27.8175ZM46.9569 8.99653H3.04314V41.0035H46.9569V8.99653Z" fill="#0F3433"/>
</svg>
