<svg width="50" height="50" viewBox="0 0 50 50" fill="none" xmlns="http://www.w3.org/2000/svg">
<g clip-path="url(#clip0_32_495)">
<path d="M16.5819 30.5509C15.7884 31.0472 14.5928 31.8511 13.6679 32.7255C12.1495 34.1595 11.8317 36.1486 12.6328 36.6132C13.3737 37.0427 15.1036 36.5317 16.3416 35.1813C17.6409 33.7636 18.1768 31.9663 17.6234 29.926C17.5583 29.9648 17.4945 30.0037 17.4319 30.0398L17.4333 30.0426L17.3493 30.0902C17.0263 30.283 16.7623 30.4421 16.5819 30.5509ZM38.8807 29.9073C38.4312 30.884 38.4087 31.1984 38.5452 31.2962C39.1974 31.0619 40.2764 30.4972 40.285 28.984C40.2863 28.7574 40.2363 28.5143 40.1561 28.2602C39.4589 28.8776 39.057 29.524 38.8807 29.9073ZM45.879 26.9538C44.1367 26.7508 42.7771 26.9951 41.722 27.4347C41.9174 27.9433 42.0676 28.473 42.0887 29.0066C42.1377 30.1777 41.3316 31.0445 40.4915 31.6632C40.0008 32.024 39.4788 32.2644 39.0406 32.4096C38.6903 32.5574 38.2246 32.7102 37.894 32.6427C37.1653 32.4946 36.7775 31.8474 37.2732 30.4195C37.5409 29.6468 38.3133 28.4706 39.5601 27.4574C39.2759 26.8724 38.9592 26.2764 38.7978 25.7288C38.4797 24.6492 38.3836 23.9967 38.3836 23.9967C38.3836 23.9967 37.356 26.1272 36.0302 28.0648C35.9537 28.1774 35.8775 28.2878 35.801 28.3979C36.0614 29.003 36.2665 29.6429 36.2944 30.2881C36.3432 31.4591 35.8362 32.3446 34.9949 32.962C34.5394 33.2979 34.0536 33.5298 33.6367 33.6774C33.3701 33.7938 32.828 33.9852 32.057 34.0368C31.6353 34.0656 31.2297 34.0395 31.0032 33.8678C30.6915 33.6323 30.6539 33.3417 30.8153 32.9446C30.9519 32.6076 31.9732 31.4417 32.8295 30.4209C33.066 30.139 33.2913 29.8509 33.4928 29.5842L33.4879 29.5728C33.4879 29.5728 33.643 29.3726 33.8947 29.0231C33.5817 28.3492 33.185 27.6477 32.9985 27.0115C32.6804 25.932 32.5841 25.2793 32.5841 25.2793C32.5841 25.2793 31.5425 27.9497 30.4573 30.0815C29.6176 31.7325 29.0566 32.733 28.8039 33.1714L28.8014 33.189C28.8014 33.189 28.7636 33.253 28.6986 33.3532L28.65 33.4344L28.6486 33.4269C28.3669 33.8429 27.7348 34.6581 27.1065 34.6581C25.3816 34.6581 26.0148 31.1549 26.0148 31.1549C26.0148 31.1549 25.5106 32.4525 24.9421 33.566C24.4792 34.474 24.0573 35.2433 23.1348 35.2433C22.8694 35.2433 22.4488 35.2356 22.0995 34.9035C21.3072 34.1508 20.7014 32.2393 20.8201 30.759C20.9215 29.5003 21.1155 28.6284 21.3809 27.9009C20.9077 28.1588 20.3607 28.4646 19.8037 28.7916L18.9474 29.2962L18.9751 29.3463C19.6834 30.7166 19.8725 33.7189 18.3278 36.0235C16.7833 38.3293 13.908 39.7322 11.1066 38.9532C10.2027 38.7013 8.83719 36.8313 10.015 34.2248C11.0539 31.9264 15.206 29.7533 16.3002 29.211L16.6005 29.0457C14.4189 27.1368 8.97115 24.5617 8.20767 20.6062C7.99231 19.4927 8.51432 16.83 11.7838 13.7689C14.5338 11.195 18.3592 9.22346 21.893 7.96715C27.8299 5.85674 34.1025 7.10162 35.0676 10.8868C36.0164 14.6093 32.787 19.062 28.6512 20.6627C24.9585 22.0917 21.9054 21.8651 20.6512 21.4532C19.2254 20.9847 18.3892 20.0439 18.1853 19.5129C18.1051 19.305 17.9672 18.9557 18.1853 18.8354C18.3191 18.7615 18.3729 18.7791 18.7309 19.1748C19.0715 19.5506 20.4408 20.559 23.042 20.267C29.8679 19.5018 33.9797 14.1948 32.6804 11.339C31.7705 9.34002 26.5094 8.43814 19.9363 11.716C11.9126 15.7165 11.4771 19.0144 11.4083 20.267C11.2205 23.7125 15.6578 25.525 18.0589 28.0875L18.1514 28.189C18.6007 27.941 19.0752 27.6793 19.5408 27.4238C20.7514 26.7586 21.893 26.1347 22.4249 25.8441C23.27 24.6158 24.9846 23.2603 26.2227 23.2603C28.2017 23.2603 27.522 26.1049 27.522 26.1049C27.522 26.1049 27.5621 25.9747 27.6159 25.9735C27.6722 25.9719 27.8901 25.5987 28.501 25.8216C29.1293 26.0521 28.9865 26.4931 28.9904 26.5381C28.9979 26.6257 28.2481 29.1545 27.9365 30.7765C27.7874 31.5506 27.8737 32.1144 27.9177 32.1144C27.979 32.1144 28.1043 31.9177 28.2206 31.7061L28.2181 31.6997C28.2181 31.6997 28.3056 31.5395 28.4522 31.2515L28.481 31.1912L28.4822 31.1939C28.6551 30.8557 28.8978 30.3584 29.1781 29.7422C29.7276 28.5311 31.8242 23.8554 32.002 23.3381C32.1797 22.8209 32.2723 22.2861 32.3601 22.0567C32.4464 21.8276 33.1875 21.6547 34.0536 21.661C34.9198 21.6673 35.0077 22.0368 35.0136 22.1132C35.02 22.1895 34.6019 23.2154 34.5054 23.9405C34.4104 24.6658 34.5019 25.0276 34.5807 25.6364C34.6321 26.0346 34.881 26.5395 35.1754 27.1119C36.0717 25.6463 37.6486 22.8433 37.8002 22.0579C37.9039 21.5207 38.0705 21.0059 38.1582 20.7765C38.2457 20.5474 38.9857 20.3747 39.8517 20.3808C40.7179 20.3871 40.8054 20.7566 40.8118 20.833C40.8181 20.9095 40.3986 21.9352 40.3036 22.6605C40.2083 23.3844 40.3 23.7477 40.3787 24.3564C40.4464 24.8774 40.8493 25.5776 41.2488 26.374C42.3389 25.8366 43.622 25.476 45.1242 25.4685C45.7462 25.4649 46.4686 25.5274 46.8416 25.6438V13.661C46.8416 12.8156 46.4083 12.0366 45.6763 11.6146L26.129 0.316638C25.3981 -0.105546 24.5031 -0.105546 23.772 0.316638L4.27865 11.6091C3.5476 12.0313 3.15698 12.8117 3.15698 13.6557V36.2613C3.15698 37.1054 3.54999 37.8858 4.27985 38.3078L23.8046 49.6091C24.5355 50.0327 25.4218 50.0327 26.1527 49.6091L45.6863 38.3078C46.4172 37.8844 46.843 37.1052 46.843 36.2613V27.1255C46.595 27.0525 46.2321 26.995 45.879 26.9538ZM24.8496 25.7701C24.4304 26.2397 23.7157 27.4508 23.3814 28.4644C22.7167 30.477 23.0046 32.5224 23.4752 32.6453C24.0247 32.7892 24.9261 30.0989 25.3577 29.0467C25.6281 28.3878 26.6797 25.4634 26.4493 25.0726C26.2694 24.767 25.5244 25.0137 24.8496 25.7701ZM32.4543 32.5537C32.4543 32.5537 32.3217 32.6791 32.379 32.7141C32.4566 32.7605 32.6244 32.7003 32.8072 32.605C33.3242 32.2796 34.4845 31.4678 34.487 30.2666C34.487 30.2317 34.4857 30.1979 34.4833 30.1615C34.2142 30.5148 33.9662 30.8291 33.7522 31.0958C33.3867 31.5504 32.4543 32.5537 32.4543 32.5537Z" fill="#8CC84B"/>
</g>
<defs>
<clipPath id="clip0_32_495">
<rect width="50" height="50" fill="white"/>
</clipPath>
</defs>
</svg>
