<svg width="50" height="50" viewBox="0 0 50 50" fill="none" xmlns="http://www.w3.org/2000/svg">
<g clip-path="url(#clip0_32_510)">
<path d="M22.1092 49.9117C19.8074 49.4538 17.8202 47.8797 16.854 45.7488C16.429 44.8114 16.2482 43.9258 16.2513 42.7966C16.2599 39.551 18.3007 36.8409 21.4712 35.8639C22.0553 35.6839 22.4407 35.6364 23.3362 35.634C23.9571 35.6326 24.6417 35.6652 24.8577 35.707L25.2504 35.7831L25.7336 34.8448C26.7204 32.9288 28.2582 31.4235 30.2463 30.4278C31.8864 29.6064 32.917 29.3675 34.8208 29.3675C36.1542 29.3675 36.4636 29.3996 37.3239 29.6276C41.039 30.612 43.9346 33.5276 44.846 37.2015C45.0742 38.1215 45.188 40.1841 45.0552 40.9933L44.9646 41.5458L45.4849 41.6623C46.7889 41.9541 47.9142 42.8651 48.4896 44.0947C49.0586 45.3106 48.9544 46.8839 48.2288 48.0333C47.8584 48.62 47.1324 49.2721 46.5265 49.5621C46.216 49.7108 45.8852 49.8726 45.7914 49.9218C45.5809 50.0323 22.6663 50.0225 22.1092 49.9117ZM45.9314 48.5554C46.5761 48.2348 47.2137 47.5181 47.4787 46.8161C48.0285 45.3598 47.295 43.6676 45.8319 43.0166C45.4624 42.8522 45.1864 42.8142 44.4159 42.8215C43.8895 42.8265 43.4588 42.7932 43.4588 42.7477C43.4588 42.7021 43.5566 42.2749 43.6761 41.7982C43.9818 40.5788 43.9787 38.6344 43.669 37.4469C42.9864 34.8285 41.2167 32.6444 38.796 31.4332C37.7323 30.901 36.7206 30.6576 35.3382 30.6011C33.2925 30.5177 31.8644 30.84 30.2906 31.7404C28.4554 32.7905 26.8735 34.6932 26.2602 36.588C26.1423 36.9524 25.9993 37.25 25.9425 37.2493C25.8853 37.2487 25.552 37.1536 25.201 37.0381C24.2247 36.7167 22.5597 36.7362 21.5854 37.0805C20.6046 37.427 19.8985 37.8712 19.1634 38.604C18.0615 39.7025 17.4494 41.1997 17.4494 42.7966C17.4494 45.1681 18.7557 47.247 20.8809 48.2578C22.1023 48.8388 21.6797 48.8213 34.0844 48.802L45.4708 48.7843L45.9314 48.5554ZM13.0787 43.9656C8.95931 43.4073 5.78859 42.373 3.44324 40.8223C2.47552 40.1825 1.80738 39.4668 1.43067 38.6667L1.15002 38.0705L1.17574 21.9306L1.20145 5.79072L1.43581 5.35098C2.02824 4.23942 3.18331 3.29092 5.02231 2.40606C7.34759 1.28716 10.0291 0.58765 13.7657 0.12515C15.3045 -0.0653067 20.53 -0.0316303 22.1092 0.178927C27.9246 0.954255 32.4374 2.85431 33.8759 5.13306C34.4428 6.03104 34.4282 5.70555 34.4282 17.4387V28.2111L34.1092 28.2605C33.9337 28.2877 33.5362 28.337 33.2259 28.3702C30.0235 28.7121 26.7024 30.926 25 33.8537L24.6515 34.4531L23.2822 34.5178C21.6644 34.5942 20.84 34.8014 19.61 35.4409C17.4981 36.539 15.9887 38.4426 15.3732 40.7843C15.2032 41.4311 15.1529 41.9 15.1495 42.8702L15.1423 44.1217L14.5999 44.1101C14.3016 44.1037 13.6158 44.0387 13.076 43.9656H13.0787ZM21.4529 29.0891C20.6802 28.4333 20.0119 27.865 19.9678 27.8261C19.9235 27.7873 20.0843 27.6403 20.3245 27.4995C20.8572 27.1873 21.5432 26.4401 21.8345 25.8547C22.5462 24.424 22.5304 22.6446 21.793 21.2287C20.9823 19.6714 19.2857 18.8545 17.3635 19.0958C16.311 19.228 15.6516 19.5232 14.9562 20.1737C13.8587 21.2004 13.4785 22.2078 13.5362 23.9368C13.5691 24.9198 13.6041 25.0966 13.8852 25.6932C14.4903 26.9774 15.7554 27.9373 17.0442 28.0899C17.529 28.1473 17.5711 28.1791 18.5345 29.2152L19.526 30.2814H21.1918H22.8577L21.4529 29.0891ZM17.2493 25.7415C16.5742 25.399 16.3179 24.8122 16.3179 23.6091C16.3179 22.8264 16.3557 22.5978 16.5482 22.2064C16.856 21.5814 17.4696 21.2056 18.0716 21.2735C18.6637 21.3402 18.9715 21.5797 19.2847 22.2174C19.5224 22.7014 19.5567 22.8848 19.5539 23.6556C19.5539 24.6064 19.3823 25.0938 18.9041 25.5386C18.4045 26.0033 17.8898 26.0664 17.2493 25.7415ZM10.4569 28.0199C12.2319 27.6105 13.1961 26.1239 12.6849 24.5849C12.4276 23.81 11.8836 23.326 10.555 22.6898C9.94145 22.3959 9.39274 22.0955 9.33567 22.0221C9.11224 21.7351 9.11274 21.5451 9.33567 21.2839C9.68138 20.882 10.4684 20.8628 11.534 21.2302L12.3468 21.5105L12.319 20.4257L12.2911 19.3408L11.7512 19.2125C10.9348 19.0184 9.17009 19.0279 8.47581 19.2302C7.08366 19.6356 6.3501 20.5455 6.35467 21.861C6.36181 23.2149 6.96931 23.8567 9.11724 24.7681C10.026 25.1536 10.13 25.8742 9.31774 26.1563C8.94181 26.2869 8.83481 26.2844 8.23995 26.1308C7.87666 26.037 7.32552 25.8285 7.01509 25.6676L6.45067 25.3749V26.5493V27.7237L7.01509 27.8808C7.32552 27.9673 7.62366 28.0533 7.67766 28.0721C7.90202 28.1503 10.0659 28.1096 10.4547 28.0199H10.4569ZM29.4221 26.993V25.9623H27.8515H26.281V22.5759V19.1894H25.005H23.7289V23.6065V28.0237H26.5755H29.4221V26.993ZM21.8639 9.32051C24.4235 9.02385 26.524 8.48731 27.8515 7.79099C28.7237 7.33353 28.9329 7.16875 29.2682 6.67468C30.305 5.14687 27.9834 3.61069 23.4835 2.84699C19.2558 2.12949 13.6845 2.29179 10.1186 3.23633C2.7611 5.18526 5.66152 8.76532 15.1698 9.47112C16.7303 9.58695 20.2477 9.50784 21.8639 9.32051Z" fill="#00BCF2"/>
</g>
<defs>
<clipPath id="clip0_32_510">
<rect width="50" height="50" fill="white"/>
</clipPath>
</defs>
</svg>
